<mxfile host="65bd71144e">
    <diagram name="第 1 页" id="ySZDE8blW_etE0rMzz82">
        <mxGraphModel dx="805" dy="707" grid="1" gridSize="10" guides="1" tooltips="1" connect="1" arrows="1" fold="1" page="1" pageScale="1" pageWidth="827" pageHeight="1169" math="0" shadow="0">
            <root>
                <mxCell id="0"/>
                <mxCell id="1" parent="0"/>
                <mxCell id="2" value="" style="rounded=0;whiteSpace=wrap;html=1;" parent="1" vertex="1">
                    <mxGeometry x="132" y="183.5" width="360" height="353" as="geometry"/>
                </mxCell>
                <mxCell id="MrCttywZgMvGspf8CYV7-2" value="" style="group;rotation=43;" parent="1" vertex="1" connectable="0">
                    <mxGeometry x="310" y="399.9999999999999" width="120" height="20" as="geometry"/>
                </mxCell>
                <mxCell id="MrCttywZgMvGspf8CYV7-3" value="" style="endArrow=none;html=1;rounded=0;strokeWidth=4;" parent="MrCttywZgMvGspf8CYV7-2" edge="1">
                    <mxGeometry width="50" height="50" relative="1" as="geometry">
                        <mxPoint x="16" y="-31" as="sourcePoint"/>
                        <mxPoint x="104" y="51" as="targetPoint"/>
                    </mxGeometry>
                </mxCell>
                <mxCell id="MrCttywZgMvGspf8CYV7-4" value="" style="endArrow=none;html=1;rounded=0;strokeWidth=4;" parent="MrCttywZgMvGspf8CYV7-2" edge="1">
                    <mxGeometry width="50" height="50" relative="1" as="geometry">
                        <mxPoint x="97" y="58" as="sourcePoint"/>
                        <mxPoint x="111" y="44" as="targetPoint"/>
                    </mxGeometry>
                </mxCell>
                <mxCell id="MrCttywZgMvGspf8CYV7-5" value="" style="group;rotation=-135;" parent="1" vertex="1" connectable="0">
                    <mxGeometry x="220" y="300" width="120" height="20" as="geometry"/>
                </mxCell>
                <mxCell id="MrCttywZgMvGspf8CYV7-6" value="" style="endArrow=none;html=1;rounded=0;strokeWidth=4;" parent="MrCttywZgMvGspf8CYV7-5" edge="1">
                    <mxGeometry width="50" height="50" relative="1" as="geometry">
                        <mxPoint x="102" y="52" as="sourcePoint"/>
                        <mxPoint x="18" y="-32" as="targetPoint"/>
                    </mxGeometry>
                </mxCell>
                <mxCell id="MrCttywZgMvGspf8CYV7-7" value="" style="endArrow=none;html=1;rounded=0;strokeWidth=4;" parent="MrCttywZgMvGspf8CYV7-5" edge="1">
                    <mxGeometry width="50" height="50" relative="1" as="geometry">
                        <mxPoint x="25" y="-40" as="sourcePoint"/>
                        <mxPoint x="10" y="-25" as="targetPoint"/>
                    </mxGeometry>
                </mxCell>
                <mxCell id="MrCttywZgMvGspf8CYV7-8" value="" style="group;rotation=-180;fontColor=#FFFFFF;" parent="1" vertex="1" connectable="0">
                    <mxGeometry x="190" y="350" width="120" height="20" as="geometry"/>
                </mxCell>
                <mxCell id="MrCttywZgMvGspf8CYV7-9" value="" style="endArrow=none;html=1;rounded=0;strokeWidth=4;" parent="MrCttywZgMvGspf8CYV7-8" edge="1">
                    <mxGeometry width="50" height="50" relative="1" as="geometry">
                        <mxPoint x="120" y="10" as="sourcePoint"/>
                        <mxPoint y="10" as="targetPoint"/>
                    </mxGeometry>
                </mxCell>
                <mxCell id="MrCttywZgMvGspf8CYV7-10" value="" style="endArrow=none;html=1;rounded=0;strokeWidth=4;" parent="MrCttywZgMvGspf8CYV7-8" edge="1">
                    <mxGeometry width="50" height="50" relative="1" as="geometry">
                        <mxPoint as="sourcePoint"/>
                        <mxPoint y="20" as="targetPoint"/>
                    </mxGeometry>
                </mxCell>
                <mxCell id="MrCttywZgMvGspf8CYV7-11" value="" style="group;rotation=-15;" parent="1" vertex="1" connectable="0">
                    <mxGeometry x="323" y="334" width="120" height="20" as="geometry"/>
                </mxCell>
                <mxCell id="MrCttywZgMvGspf8CYV7-12" value="" style="endArrow=none;html=1;rounded=0;strokeWidth=4;" parent="MrCttywZgMvGspf8CYV7-11" edge="1">
                    <mxGeometry width="50" height="50" relative="1" as="geometry">
                        <mxPoint x="2" y="26" as="sourcePoint"/>
                        <mxPoint x="118" y="-6" as="targetPoint"/>
                    </mxGeometry>
                </mxCell>
                <mxCell id="MrCttywZgMvGspf8CYV7-13" value="" style="endArrow=none;html=1;rounded=0;strokeWidth=4;" parent="MrCttywZgMvGspf8CYV7-11" edge="1">
                    <mxGeometry width="50" height="50" relative="1" as="geometry">
                        <mxPoint x="121" y="4" as="sourcePoint"/>
                        <mxPoint x="115" y="-15" as="targetPoint"/>
                    </mxGeometry>
                </mxCell>
                <mxCell id="MrCttywZgMvGspf8CYV7-14" value="" style="group;rotation=-240;fillColor=none;" parent="1" vertex="1" connectable="0">
                    <mxGeometry x="229" y="408.9999999999999" width="120" height="20" as="geometry"/>
                </mxCell>
                <mxCell id="MrCttywZgMvGspf8CYV7-15" value="" style="endArrow=none;html=1;rounded=0;strokeWidth=4;" parent="MrCttywZgMvGspf8CYV7-14" edge="1">
                    <mxGeometry width="50" height="50" relative="1" as="geometry">
                        <mxPoint x="89" y="-42" as="sourcePoint"/>
                        <mxPoint x="31" y="62" as="targetPoint"/>
                    </mxGeometry>
                </mxCell>
                <mxCell id="MrCttywZgMvGspf8CYV7-16" value="" style="endArrow=none;html=1;rounded=0;strokeWidth=4;" parent="MrCttywZgMvGspf8CYV7-14" edge="1">
                    <mxGeometry width="50" height="50" relative="1" as="geometry">
                        <mxPoint x="22" y="56" as="sourcePoint"/>
                        <mxPoint x="38" y="67" as="targetPoint"/>
                    </mxGeometry>
                </mxCell>
                <mxCell id="4" value="" style="group;rotation=-60;" vertex="1" connectable="0" parent="1">
                    <mxGeometry x="290" y="290" width="120" height="20" as="geometry"/>
                </mxCell>
                <mxCell id="5" value="" style="endArrow=none;html=1;rounded=0;strokeWidth=4;" edge="1" parent="4">
                    <mxGeometry width="50" height="50" relative="1" as="geometry">
                        <mxPoint x="31" y="62" as="sourcePoint"/>
                        <mxPoint x="89" y="-42" as="targetPoint"/>
                    </mxGeometry>
                </mxCell>
                <mxCell id="6" value="" style="endArrow=none;html=1;rounded=0;strokeWidth=4;" edge="1" parent="4">
                    <mxGeometry width="50" height="50" relative="1" as="geometry">
                        <mxPoint x="99" y="-37" as="sourcePoint"/>
                        <mxPoint x="81" y="-47" as="targetPoint"/>
                    </mxGeometry>
                </mxCell>
                <mxCell id="3" value="" style="ellipse;whiteSpace=wrap;html=1;aspect=fixed;fillColor=#FFFFFF;" vertex="1" parent="1">
                    <mxGeometry x="300" y="340" width="40" height="40" as="geometry"/>
                </mxCell>
                <mxCell id="MrCttywZgMvGspf8CYV7-28" value="Distributor" style="text;html=1;strokeColor=none;fillColor=none;align=center;verticalAlign=middle;whiteSpace=wrap;rounded=0;fontSize=8;rotation=0;fontColor=#000000;" parent="1" vertex="1">
                    <mxGeometry x="237.5" y="345" width="165" height="30" as="geometry"/>
                </mxCell>
            </root>
        </mxGraphModel>
    </diagram>
</mxfile>